PathFileType	4	(X/Y/Z)	D:\TRACE\spotREDO_2-26-24\spot_justBody_Motion_1_2-platform.trc
DataRate	CameraRate	NumFrames	NumMarkers	Units	OrigDataRate	OrigDataStartFrame	OrigNumFrames
100.00	100.00	      38	5	mm	100.00	1	      7000
Frame#	Time	Left_Front			Right_Front			Left_Aft			Right_Aft			Post			
		X1	Y1	Z1	X2	Y2	Z2	X3	Y3	Z3	X4	Y4	Z4	X5	Y5	Z5	

1	0.000	-697.02777	-3.79557	-575.57117	717.92407	5.15210	-491.13907	-768.15527	4.99047	643.60297	802.24414	11.81252	646.48749	12.40047	623.47198	-981.92926	
2	0.010	-697.00269	-3.82719	-575.56439	717.86444	5.11685	-491.23004	-768.25818	4.69716	643.45074	802.18915	11.76182	646.51221	12.40370	623.41730	-981.75848	
3	0.020	-697.01263	-3.82423	-575.54315	717.89453	5.12924	-491.24496	-768.22888	4.98204	643.51678	802.18903	11.86439	646.45746	12.38853	623.38959	-981.75488	
4	0.030	-697.00330	-3.81160	-575.60083	717.87836	5.17551	-491.18109	-768.25336	4.87578	643.44122	802.15436	11.99236	646.35352	12.36755	623.33472	-981.77655	
5	0.040	-697.01135	-3.76944	-575.54120	717.87982	5.22193	-491.07031	-768.14716	5.06607	643.54895	801.95483	12.08264	646.42346	12.37007	623.40631	-981.90613	
6	0.050	-696.98267	-3.76480	-575.57703	717.92975	5.29865	-491.06870	-768.15247	5.03666	643.58527	802.17657	11.93078	646.43274	12.30791	623.45184	-982.12067	
7	0.060	-696.99072	-3.80180	-575.52063	717.91150	5.16451	-491.16492	-768.16943	4.99244	643.61639	802.13263	11.70277	646.58032	12.40627	623.42102	-982.34174	
8	0.070	-697.03485	-3.80487	-575.57593	717.86060	5.13909	-491.20642	-768.25085	4.70829	643.48804	802.10931	11.62879	646.48163	12.46237	623.38037	-982.53479	
9	0.080	-696.98035	-3.79868	-575.56793	717.92334	5.13531	-491.22101	-768.25269	4.75633	643.41089	802.22290	11.82576	646.47888	12.33936	623.43671	-982.57886	
10	0.090	-696.95990	-3.77238	-575.55176	717.90765	5.20658	-491.15051	-768.15338	5.03708	643.59344	802.16296	12.02662	646.43146	12.26531	623.56140	-982.50336	
11	0.100	-697.02240	-3.71885	-575.54681	717.94550	5.36850	-491.02225	-768.21857	4.94939	643.51062	802.11945	11.90992	646.41223	12.31449	623.50586	-982.40491	
12	0.110	-696.99701	-3.78429	-575.56573	717.92993	5.30283	-491.07306	-768.23004	4.92354	643.47485	802.03973	11.96167	646.45270	12.40547	623.39661	-982.15100	
13	0.120	-697.01514	-3.80978	-575.55872	717.92889	5.18519	-491.17004	-768.21277	5.04150	643.58203	802.12909	11.86013	646.40497	12.43797	623.36420	-981.91650	
14	0.130	-697.01184	-3.82858	-575.60822	717.86469	5.12338	-491.21149	-768.25494	4.77603	643.41797	802.14624	12.00110	646.36597	12.38056	623.34363	-981.71313	
15	0.140	-696.99152	-3.80502	-575.59088	717.85706	5.11271	-491.19568	-768.26105	4.80305	643.44177	802.18463	12.02365	646.36115	11.63230	623.45813	-981.76947	
16	0.150	-696.95490	-3.75533	-575.54138	717.88263	5.21609	-491.12509	-768.15076	5.06955	643.61127	802.05194	12.01683	646.35040	12.05826	623.59448	-981.80334	
17	0.160	-696.99854	-3.73416	-575.49951	717.92017	5.32332	-491.01761	-768.24585	4.96006	643.50031	802.11340	11.99010	646.45990	12.38640	623.49042	-981.85925	
18	0.170	-696.99951	-3.75210	-575.54175	717.97162	5.29870	-491.08432	-768.14441	5.04495	643.62769	802.07288	11.88157	646.48950	12.44379	623.40735	-981.97772	
19	0.180	-697.01160	-3.77312	-575.58252	717.87805	5.13278	-491.14874	-768.19482	4.98040	643.59973	802.01276	11.88083	646.51978	12.45814	623.46204	-982.08289	
20	0.190	-696.98999	-3.78953	-575.59119	717.86987	5.03667	-491.20264	-768.26947	4.75350	643.43573	802.13330	11.96397	646.36395	12.45358	623.48077	-982.30566	
21	0.200	-696.96301	-3.75919	-575.57739	717.85156	5.17285	-491.30023	-768.18311	5.04197	643.59467	802.12933	11.92936	646.43567	12.48522	623.46771	-982.31372	
22	0.210	-696.96069	-3.72656	-575.58350	717.94086	5.35875	-491.03745	-768.12689	5.06693	643.59888	802.11627	11.98702	646.46027	12.62086	623.41223	-982.27789	
23	0.220	-696.97546	-3.75719	-575.56567	717.95325	5.31684	-491.02328	-768.24103	4.93683	643.50800	802.07159	11.93869	646.44287	12.66123	623.33301	-982.22925	
24	0.230	-696.99396	-3.80536	-575.59180	717.93793	5.19034	-491.16721	-768.20483	5.05581	643.59528	802.11713	11.90203	646.43066	12.67173	623.34576	-982.14673	
25	0.240	-696.99146	-3.84226	-575.60944	717.86725	5.07455	-491.19479	-768.26086	4.78711	643.41156	802.01666	12.16472	646.62915	12.58326	623.36670	-982.18475	
26	0.250	-696.95715	-3.81975	-575.59625	717.92322	5.10217	-491.14294	-768.22308	4.74793	643.37537	802.13403	11.98828	646.44208	12.57305	623.43121	-982.11688	
27	0.260	-696.98541	-3.76781	-575.56006	717.86688	5.17414	-491.19006	-768.14124	5.02645	643.58173	802.09082	11.95124	646.46722	12.59263	623.45477	-982.06305	
28	0.270	-696.99194	-3.70555	-575.55963	717.92932	5.31947	-491.11658	-768.13666	5.06857	643.60492	802.03223	12.08220	646.67096	12.61337	623.43604	-982.05408	
29	0.280	-697.02429	-3.71938	-575.56323	717.92889	5.29899	-491.08682	-768.15277	4.97669	643.57306	802.05023	11.88093	646.49426	12.58335	623.47437	-981.99097	
30	0.290	-697.02161	-3.76061	-575.57288	717.87573	5.19236	-491.20285	-768.21826	5.04881	643.60193	802.08453	11.86549	646.43030	12.53377	623.46216	-981.94537	
31	0.300	-696.97937	-3.82953	-575.59198	717.91309	5.14329	-491.15091	-768.24139	4.76548	643.44458	802.15680	11.95665	646.39984	12.58088	623.43237	-981.91071	
32	0.310	-696.97211	-3.79667	-575.55316	717.89362	5.14308	-491.25797	-768.25848	4.78068	643.40253	802.14001	12.01349	646.37781	12.56811	623.44580	-981.92004	
33	0.320	-697.01111	-3.78082	-575.56989	717.84729	5.16212	-491.19049	-768.17255	5.01247	643.56915	802.13538	11.91112	646.44098	12.57637	623.38342	-981.96045	
34	0.330	-697.00146	-3.77331	-575.53333	717.94788	5.27549	-491.16031	-768.15381	5.02689	643.57758	802.17767	11.93496	646.43481	12.61360	623.39087	-982.01898	
35	0.340	-697.00958	-3.79480	-575.59686	717.92920	5.21135	-491.22849	-768.16803	5.05544	643.55328	802.04572	11.95773	646.40479	12.54126	623.40790	-982.11700	
36	0.350	-697.02466	-3.81556	-575.57489	717.84418	5.10912	-491.19284	-768.26367	4.79828	643.43091	802.07452	11.95405	646.38416	12.59482	623.41699	-982.23145	
37	0.360	-697.02374	-3.79356	-575.59125	717.95172	5.15151	-491.19382	-768.24463	4.73438	643.41486	802.18958	11.89978	646.44379	12.56926	623.41803	-982.34192	
38	0.370	-696.98645	-3.77742	-575.56335	717.84918	5.14282	-491.25150	-768.26733	4.74708	643.45782	802.07953	11.85242	646.50323	12.53520	623.46552	-982.35779	
